<?xml version="1.0" encoding="utf-8"?>
<!-- Generator: Adobe Illustrator 21.1.0, SVG Export Plug-In . SVG Version: 6.00 Build 0)  -->
<svg version="1.1" id="Layer_1" xmlns="http://www.w3.org/2000/svg" xmlns:xlink="http://www.w3.org/1999/xlink" x="0px" y="0px"
	 viewBox="0 0 512 512" style="enable-background:new 0 0 512 512;" xml:space="preserve">
<style type="text/css">
	.st0{fill:#E60066;}
	.st1{fill:#F9D100;}
</style>
<path class="st0" d="M502,321.4c0-79.1-64.1-143.3-143.3-143.3s-143.3,64.1-143.3,143.3s64.1,143.3,143.3,143.3
	c15.6,0,30.6-2.5,44.7-7.1l44.5,44.5v-68.5C480.9,407.2,502,366.8,502,321.4L502,321.4z"/>
<path class="st1" d="M158,10C76.2,10,10,76.3,10,158c0,46,21,87.2,54,114.3v62l38.9-38.9c17,6.8,35.6,10.6,55.1,10.6
	c81.7,0,148-66.2,148-148S239.7,10,158,10L158,10z"/>
<path d="M358.7,168.1c-14.9,0-29.5,2.1-43.6,6.3c0.6-5.4,0.8-10.9,0.8-16.4c0-25.3-5.8-49.5-17.3-71.9c-2.5-4.9-8.5-6.9-13.5-4.3
	c-4.9,2.5-6.9,8.5-4.3,13.5c10,19.5,15.1,40.7,15.1,62.8c0,76.1-61.9,138-138,138c-17.7,0-35-3.3-51.3-9.9c-3.7-1.5-8-0.6-10.8,2.2
	L74,310.2v-37.9c0-3-1.3-5.8-3.6-7.7C38.3,238.3,20,199.4,20,158C20,81.9,81.9,20,158,20c18.4,0,36.2,3.5,53,10.5
	c5.4,2.3,10.8,4.9,15.9,7.8c4.8,2.8,10.9,1.1,13.7-3.7c2.8-4.8,1.1-10.9-3.7-13.7c-5.8-3.4-11.9-6.4-18.2-9C199.4,4.1,179,0,158,0
	C70.9,0,0,70.9,0,158c0,45.8,19.6,88.9,54,118.9v57.4c0,4,2.4,7.7,6.2,9.2c1.2,0.5,2.5,0.8,3.8,0.8c2.6,0,5.2-1,7.1-2.9l34.4-34.4
	c16.8,5.9,34.5,9,52.6,9c16.7,0,32.9-2.6,48-7.5c-0.4,4.3-0.5,8.6-0.5,12.8c0,23.4,5.1,45.9,15.3,66.8c1.7,3.6,5.3,5.6,9,5.6
	c1.5,0,2.9-0.3,4.4-1c5-2.4,7-8.4,4.6-13.4c-8.8-18.2-13.3-37.7-13.3-58.1c0-7.2,0.6-14.3,1.7-21.4c41.2-20.2,72.4-57.8,83.9-103.1
	c15.2-5.8,31.2-8.8,47.6-8.8c73.5,0,133.3,59.8,133.3,133.3c0,40.8-18.3,78.8-50.3,104.3c-2.4,1.9-3.8,4.8-3.8,7.8v44.3l-27.4-27.4
	c-2.7-2.7-6.6-3.6-10.2-2.4c-13.4,4.4-27.4,6.6-41.6,6.6c-20.3,0-39.8-4.5-58-13.2c-5-2.4-10.9-0.3-13.4,4.6
	c-2.4,5-0.3,10.9,4.6,13.4c20.9,10.1,43.3,15.2,66.7,15.2c14.2,0,28.3-2,41.9-5.8l40.2,40.2c1.9,1.9,4.5,2.9,7.1,2.9
	c1.3,0,2.6-0.2,3.8-0.8c3.7-1.5,6.2-5.2,6.2-9.2v-63.7C492.3,409,512,366.7,512,321.4C512,236.8,443.2,168.1,358.7,168.1
	L358.7,168.1z"/>
<path d="M265,416.1c-3.9-3.9-10.3-3.9-14.1,0.1s-3.9,10.3,0.1,14.1c0.4,0.4,0.7,0.7,1.1,1c1.9,1.9,4.5,2.8,7,2.8c2.6,0,5.2-1,7.2-3
	c3.8-4,3.8-10.3-0.2-14.1C265.6,416.7,265.3,416.4,265,416.1z"/>
<path d="M259.4,64.4c2.2,2.3,4.8,3.2,7.3,3.2c2.6,0,5.1-1,6.9-2.7c3.6-3.4,4.7-9.6,0.3-14.2c-4.3-4.6-10.6-3.9-14.2-0.6
	C256.1,53.4,254.9,59.7,259.4,64.4C259.3,64.4,259.3,64.4,259.4,64.4L259.4,64.4z"/>
<path d="M114.5,123.5c-1.9-1.9-4.4-2.9-7.1-2.9c-2.6,0-5.2,1.1-7.1,2.9c-1.9,1.9-2.9,4.4-2.9,7.1c0,2.6,1.1,5.2,2.9,7.1
	c1.9,1.9,4.4,2.9,7.1,2.9s5.2-1.1,7.1-2.9c1.9-1.9,2.9-4.4,2.9-7.1S116.3,125.4,114.5,123.5z"/>
<path d="M215.6,137.7c1.9-1.9,2.9-4.4,2.9-7.1s-1.1-5.2-2.9-7.1c-1.9-1.9-4.4-2.9-7.1-2.9c-2.6,0-5.2,1.1-7.1,2.9
	c-1.9,1.9-2.9,4.4-2.9,7.1c0,2.6,1.1,5.2,2.9,7.1c1.9,1.9,4.4,2.9,7.1,2.9S213.7,139.5,215.6,137.7z"/>
<path d="M158,229.7c21.2,0,39.9-14.3,45.4-34.9c1.4-5.3-1.7-10.8-7.1-12.2c-5.3-1.4-10.8,1.7-12.2,7.1c-3.1,11.8-13.9,20-26,20
	s-22.9-8.2-26-20c-1.4-5.3-6.9-8.5-12.2-7.1c-5.3,1.4-8.5,6.9-7.1,12.2C118.1,215.3,136.7,229.7,158,229.7L158,229.7z"/>
<path d="M309.9,284.6c-2.6,0-5.2,1.1-7.1,2.9c-1.9,1.9-2.9,4.4-2.9,7.1c0,2.6,1.1,5.2,2.9,7.1c1.9,1.9,4.4,2.9,7.1,2.9
	c2.6,0,5.2-1.1,7.1-2.9c1.9-1.9,2.9-4.4,2.9-7.1s-1.1-5.2-2.9-7.1C315.1,285.7,312.5,284.6,309.9,284.6z"/>
<path d="M414.7,301.7c1.9-1.9,2.9-4.4,2.9-7.1s-1.1-5.2-2.9-7.1c-1.9-1.9-4.4-2.9-7.1-2.9c-2.6,0-5.2,1.1-7.1,2.9
	c-1.9,1.9-2.9,4.4-2.9,7.1c0,2.6,1.1,5.2,2.9,7.1c1.9,1.9,4.4,2.9,7.1,2.9C410.2,304.6,412.8,303.5,414.7,301.7z"/>
<path d="M358.7,344.2c-20.7,0-38.8,14-44.2,33.9c-1.4,5.3,1.7,10.8,7.1,12.2c5.3,1.4,10.8-1.7,12.2-7.1c3-11.2,13.2-19.1,24.9-19.1
	c11.6,0,21.9,7.9,24.9,19.1c1.2,4.5,5.2,7.4,9.7,7.4c0.9,0,1.7-0.1,2.6-0.3c5.3-1.4,8.5-6.9,7.1-12.2
	C397.6,358.2,379.4,344.2,358.7,344.2L358.7,344.2z"/>
</svg>
